<svg xmlns="http://www.w3.org/2000/svg" xmlns:xlink="http://www.w3.org/1999/xlink" version="1.1" x="0px" y="0px" viewBox="0 0 100 100" style="enable-background:new 0 0 100 100;max-width:100%; color: #3fb386;" xml:space="preserve" height="100%" width="70">
	<g fill="currentColor">
		<path d="M67.6024,41.55433c-0.14746,0-0.2969-0.01966-0.44633-0.05997c-0.89658-0.24675-1.42352-1.17283-1.17774-2.06941   c1.08926-3.97071,1.4707-7.49511,1.59851-9.75229c0.05309-0.92902,0.91034-1.62505,1.77547-1.58573   c0.93,0.05309,1.63979,0.84743,1.58671,1.77645c-0.13763,2.41939-0.54463,6.19742-1.71255,10.45225   C69.02002,41.06376,68.34365,41.55433,67.6024,41.55433z M32.33098,41.49632c-0.74519,0-1.42745-0.5004-1.62604-1.25639   c-0.94967-3.61287-1.53559-7.3093-1.65356-10.40801c-0.03343-0.93001,0.69013-1.71157,1.62014-1.74597   c0.92018-0.05702,1.70862,0.68817,1.74597,1.61817c0.10814,2.8608,0.65671,6.29868,1.54346,9.68052   c0.23594,0.89953-0.30083,1.81971-1.19938,2.05565C32.61804,41.47863,32.47254,41.49632,32.33098,41.49632z" fill="currentColor">
		</path>
		<path d="M11.33014,99.99529c-0.93001,0-1.68306-0.75305-1.68306-1.68305c0-11.24462,2.95321-21.58087,8.10462-28.35635   c0.5643-0.73929,1.61817-0.88282,2.35942-0.32246c0.74125,0.56429,0.88478,1.62014,0.32245,2.35942   c-4.71492,6.20332-7.42039,15.79635-7.42039,26.31938C13.01319,99.24224,12.26014,99.99529,11.33014,99.99529z M35.47098,66.89454   c-0.64884,0-1.26622-0.37751-1.54346-1.01062c-0.37161-0.85332,0.0177-1.84624,0.86905-2.21786   c0.76091-0.33032,1.43139-0.79434,2.05074-1.41565c0.6744-0.63311,1.05584-1.45301,1.24066-2.61306   c0.14746-0.91821,1.01455-1.52969,1.92883-1.39796c0.91821,0.14746,1.54346,1.01062,1.39796,1.92883   c-0.30672,1.90917-1.03421,3.38184-2.22376,4.49863c-0.88282,0.88675-1.89344,1.58279-3.04562,2.08613   C35.92517,66.84735,35.69709,66.89454,35.47098,66.89454z" fill="currentColor">
		</path>
		<path d="M88.60521,99.99529c-0.93001,0-1.68306-0.75305-1.68306-1.68305c0-8.083-1.62013-15.80421-4.56155-21.74013   c-0.4129-0.83366-0.07275-1.84232,0.76092-2.25522c0.83759-0.41683,1.84428-0.07275,2.25522,0.76092   c3.16753,6.39011,4.91153,14.64219,4.91153,23.23443C90.28826,99.24224,89.53522,99.99529,88.60521,99.99529z M72.28389,68.60513   c-0.07668,0-0.15533-0.00394-0.23201-0.01573l-1.12269-0.14943c-3.56077-0.46206-7.24147-0.9418-10.15339-3.79868   c-1.16399-1.09123-1.89147-2.56391-2.1982-4.47308c-0.1455-0.91821,0.47975-1.78136,1.39796-1.92883   c0.91231-0.1396,1.7794,0.47975,1.92883,1.39796c0.18482,1.16005,0.56626,1.97995,1.20134,2.5757   c2.13528,2.09202,5.10815,2.47937,8.25798,2.88833l1.14825,0.15336c0.92214,0.12781,1.56509,0.9772,1.43728,1.89737   C73.83324,67.99561,73.11166,68.60513,72.28389,68.60513z" fill="currentColor">
		</path>
		<path d="M88.60521,99.99529H11.33014c-0.93001,0-1.68306-0.75305-1.68306-1.68305c0-0.93001,0.75305-1.68306,1.68306-1.68306   h77.27507c0.93001,0,1.68305,0.75305,1.68305,1.68306C90.28826,99.24224,89.53522,99.99529,88.60521,99.99529z" fill="currentColor">
		</path>
		<path d="M49.96964,65.86819c-0.14353,0-0.291-0.01966-0.43453-0.05898c-15.34412-4.0877-21.68507-12.95127-18.84983-26.34592   c0.11797-0.55348,0.50531-1.0116,1.03225-1.21805c0.52497-0.2035,1.12269-0.13468,1.58475,0.19072   c2.71531,1.91212,4.6579,3.45951,6.0008,4.7857l0.14157-0.05112c3.95597-1.42647,5.59184-2.01731,10.52303-2.01731   c0.93001,0,1.68306,0.75403,1.68306,1.68404s-0.75305,1.68404-1.68306,1.68404c-4.34134,0-5.6115,0.45714-9.37871,1.81676   l-1.18365,0.42568c-0.64491,0.22808-1.3724,0.0462-1.83052-0.47385c-0.83563-0.94967-2.16281-2.10874-4.02872-3.51456   c-1.17381,10.1003,4.24303,16.41963,16.85415,19.78181c0.89855,0.23791,1.43335,1.16005,1.19347,2.0586   C51.39316,65.37074,50.71286,65.86819,49.96964,65.86819z" fill="currentColor">
		</path>
		<path d="M49.96571,65.86819c-0.74322,0-1.42548-0.4994-1.62604-1.25246c-0.23791-0.89855,0.29689-1.82069,1.19544-2.06057   c12.66028-3.36021,18.08302-9.67364,16.86792-19.76411c-1.85805,1.42155-3.17146,2.57472-3.98546,3.49883   c-0.45812,0.51809-1.18561,0.69996-1.82462,0.47581l-1.33307-0.47483c-3.7043-1.32423-4.95086-1.76957-9.2922-1.76957   c-0.93,0-1.68306-0.75403-1.68306-1.68404s0.75305-1.68404,1.68306-1.68404c4.9253,0,6.53561,0.5761,10.42472,1.96717   l0.29493,0.10421c1.31538-1.29965,3.23634-2.84507,5.93396-4.7798c0.45812-0.33032,1.05387-0.40799,1.58671-0.2035   c0.52891,0.2035,0.92017,0.65966,1.04012,1.21412c2.90209,13.39661-3.43886,22.26411-18.84787,26.35575   C50.25473,65.84853,50.10924,65.86819,49.96571,65.86819z" fill="currentColor">
		</path>
		<path d="M53.67787,51.14342c-0.15336,0-0.30869-0.02163-0.46402-0.06685c-2.10186-0.60165-4.32954-0.60165-6.43533,0   c-0.89462,0.26543-1.82659-0.25954-2.08219-1.15415c-0.25561-0.89462,0.2615-1.82659,1.15415-2.08219   c2.71137-0.77566,5.57611-0.77665,8.29141,0c0.89265,0.2556,1.40976,1.18758,1.15415,2.08219   C55.08566,50.6617,54.41125,51.14342,53.67787,51.14342z" fill="currentColor">
		</path>
		<path d="M30.7364,31.45206c-0.57609,0-1.13646-0.29493-1.45105-0.8258c-3.45852-5.83368-4.25876-10.94085-2.37712-15.17798   c2.06253-4.65101,7.19231-7.8382,15.24778-9.47407c1.4884-0.30181,2.93748-0.58691,4.34134-0.86316   c7.41646-1.45891,13.82033-2.71924,18.49789-4.94299c0.50334-0.23987,1.0873-0.21333,1.56902,0.06488   c0.47975,0.2792,0.79237,0.77664,0.83366,1.33013c0.69406,9.26566-5.42668,15.93693-18.1951,19.82801   c-0.90445,0.2733-1.83249-0.23103-2.10185-1.11974c-0.27133-0.88872,0.23005-1.82954,1.11876-2.10087   c9.98037-3.04169,15.177-7.61406,15.79831-13.9324C59.34245,6.0155,53.61888,7.14212,47.14816,8.41523   c-1.39993,0.27527-2.84114,0.5584-4.32364,0.85922c-6.82463,1.38616-11.26625,3.99333-12.8392,7.53934   c-1.41172,3.18326-0.67244,7.25326,2.1982,12.09598c0.47385,0.79926,0.20842,1.83249-0.58986,2.30634   C31.32429,31.37636,31.0274,31.45206,30.7364,31.45206z" fill="currentColor">
		</path>
		<path d="M69.25597,31.45206c-0.29296,0-0.58986-0.07668-0.85922-0.23693c-0.79827-0.47582-1.06174-1.50905-0.58593-2.3083   c2.62093-4.40426,3.46049-8.18917,2.49509-11.24954c-0.8258-2.61896-3.02399-4.74932-6.53364-6.32916   c-0.84743-0.38242-1.22493-1.37928-0.84349-2.22671c0.38144-0.84939,1.37436-1.22493,2.22769-0.84448   c4.42196,1.99175,7.23557,4.81421,8.36219,8.38874c1.26426,4.01397,0.31853,8.71906-2.81361,13.98352   C70.39046,31.15811,69.83009,31.45206,69.25597,31.45206z" fill="currentColor">
		</path>
		<path d="M30.73247,31.45206c-0.82776,0-1.54936-0.61148-1.66536-1.45498c-0.1278-0.92116,0.51711-1.77055,1.43925-1.89737   c2.35549-0.32245,4.02085-1.40976,5.09439-3.32187c0.45419-0.81302,1.48251-1.10303,2.29257-0.64393   c0.81203,0.45517,1.0991,1.48152,0.64491,2.29159c-1.58081,2.8146-4.19977,4.54779-7.57572,5.01083   C30.88583,31.44714,30.80915,31.45206,30.73247,31.45206z" fill="currentColor">
		</path>
		<path d="M69.2599,31.45206c-0.07668,0-0.15336-0.00492-0.23004-0.01573c-3.41724-0.46894-6.05585-2.20115-7.63274-5.01083   c-0.45419-0.81007-0.16713-1.83642,0.64491-2.29159c0.8081-0.4591,1.83642-0.16909,2.29258,0.64393   c1.05584,1.87967,2.78805,2.99843,5.15141,3.32187c0.92214,0.12682,1.56705,0.97621,1.43925,1.89737   C70.80925,30.84057,70.08766,31.45206,69.2599,31.45206z" fill="currentColor">
		</path>
		<path d="M49.9893,29.49963c-4.55959,0-9.12704-0.77075-13.48214-2.31027c-0.87495-0.31066-1.33504-1.27212-1.02438-2.14904   c0.31066-0.87594,1.26819-1.33209,2.14904-1.02635c7.98075,2.82443,16.74011,2.82443,24.66975,0.00196   c0.88282-0.31262,1.84035,0.14648,2.151,1.02045c0.31066,0.87593-0.14549,1.83937-1.02242,2.15101   C59.10454,28.72889,54.55085,29.49963,49.9893,29.49963z" fill="currentColor">
		</path>
		<path d="M25.02856,99.99529c-0.06685,0-0.1337-0.00393-0.20055-0.0118c-0.92411-0.11011-1.58278-0.9477-1.47267-1.86984   c1.00275-8.43887,4.14276-15.94971,9.32759-22.32212c0.43256-0.53481,1.15022-0.74715,1.79906-0.54857   c9.85846,3.03186,21.16796,3.03186,31.03036,0c0.88085-0.26936,1.82855,0.22611,2.10382,1.1168   c0.27133,0.88872-0.22808,1.83052-1.1168,2.10382c-10.12389,3.10854-21.68114,3.21275-31.89548,0.32639   c-4.36493,5.68031-7.02322,12.3103-7.90604,19.72086C26.59561,99.36611,25.87009,99.99529,25.02856,99.99529z" fill="currentColor">
		</path>
		<path d="M74.96381,99.99529c-0.84153,0-1.56705-0.62918-1.6693-1.48447c-0.92804-7.79397-3.8203-14.72281-8.5942-20.59581   c-0.58789-0.72159-0.47778-1.78136,0.2438-2.36729c0.72552-0.58592,1.7853-0.47385,2.36729,0.2438   c5.18483,6.37437,8.32287,13.88521,9.32562,22.32212c0.11011,0.92214-0.54857,1.75974-1.47268,1.86984   C75.0975,99.99136,75.03065,99.99529,74.96381,99.99529z" fill="currentColor">
		</path>
		<path d="M33.98847,78.5383c-0.64294,0-1.25836-0.37358-1.53756-1.00079l-0.67047-1.48447   c-0.43256-0.94967-0.82973-1.82462-1.17775-2.67205c-0.35195-0.85922,0.06095-1.84232,0.92214-2.19623   c0.85922-0.34801,1.84429,0.06095,2.19623,0.92214c0.33032,0.81007,0.7098,1.64373,1.12466,2.55211l0.6803,1.51003   c0.37947,0.84939-0.00393,1.84428-0.85332,2.22179C34.45053,78.49111,34.21852,78.5383,33.98847,78.5383z" fill="currentColor">
		</path>
		<path d="M66.00389,78.53633c-0.23594,0-0.47581-0.04916-0.70586-0.15533c-0.84349-0.39127-1.21117-1.39206-0.81989-2.23556   c2.00157-4.32168,3.38577-7.73301,3.89698-9.60876c0.24577-0.89854,1.17774-1.42744,2.06646-1.18167   c0.89658,0.2438,1.42548,1.16988,1.18168,2.06646c-0.56626,2.08219-1.98192,5.58791-4.08967,10.13963   C67.24849,78.17652,66.64094,78.53633,66.00389,78.53633z" fill="currentColor">
		</path>
		<path d="M49.96767,73.91186c-0.93,0-1.68306-0.75304-1.68306-1.68305v-1.02635c0-0.93001,0.75305-1.68305,1.68306-1.68305   c0.93001,0,1.68306,0.75304,1.68306,1.68305v1.02635C51.65073,73.15881,50.89768,73.91186,49.96767,73.91186z" fill="currentColor">
		</path>
		<path d="M60.69715,99.99529c-0.93001,0-1.68306-0.75305-1.68306-1.68305v-7.73498H40.23701v7.73498   c0,0.93-0.75305,1.68305-1.68306,1.68305c-0.93001,0-1.68306-0.75305-1.68306-1.68305V88.8942   c0-0.93001,0.75305-1.68305,1.68306-1.68305h22.1432c0.93,0,1.68306,0.75304,1.68306,1.68305v9.41804   C62.38021,99.24224,61.62716,99.99529,60.69715,99.99529z" fill="currentColor">
		</path>
		<path d="M12.32503,58.69947c-0.76878,0-1.53952-0.16516-2.26505-0.49352c-1.34291-0.60755-2.36336-1.70272-2.87653-3.08298   c-0.51514-1.38419-0.46992-2.8844,0.12584-4.22337c0.60362-1.35667,1.70272-2.38892,3.09281-2.90602   c1.39009-0.51711,2.89619-0.45812,4.24303,0.16319c1.34684,0.61935,2.37122,1.72435,2.88636,3.11247   c0.50924,1.33504,0.46009,2.81558-0.1455,4.15259c-0.61738,1.36257-1.72828,2.39875-3.13017,2.91979   C13.63254,58.57954,12.97977,58.69947,12.32503,58.69947z M12.32699,51.01365c-0.25364,0-0.50728,0.04522-0.75108,0.13763   c-0.00197,0-0.00197,0-0.00197,0c-0.5348,0.19859-0.95557,0.59379-1.18758,1.11679   c-0.23594,0.5289-0.25167,1.12663-0.04522,1.68109c0.19662,0.53284,0.58986,0.95557,1.10696,1.18954   c0.52104,0.23201,1.09123,0.25364,1.62014,0.05112c0.56823-0.21038,1.00669-0.61935,1.25049-1.15808   c0.23201-0.51121,0.25364-1.07157,0.06095-1.57492c-0.20842-0.56233-0.61148-0.99686-1.14235-1.24066   C12.94634,51.0805,12.63765,51.01365,12.32699,51.01365z" fill="currentColor">
		</path>
		<path d="M8.76033,56.22011c-0.76091,0-1.45301-0.51907-1.63587-1.29375L0.04619,25.1347   c-0.21431-0.90445,0.34408-1.81282,1.24853-2.02714c0.90248-0.2153,1.81479,0.3431,2.02714,1.24853l7.07827,29.79166   c0.21431,0.90445-0.34408,1.81282-1.24853,2.02714C9.01987,56.20635,8.8901,56.22011,8.76033,56.22011z" fill="currentColor">
		</path>
		<path d="M15.95461,53.53823c-0.60559,0-1.18954-0.32639-1.49234-0.89855L0.19365,25.5299   c-0.43256-0.82285-0.11601-1.84133,0.70586-2.27389c0.82383-0.43551,1.84035-0.11502,2.27488,0.70488l14.26862,27.10978   c0.43256,0.82383,0.116,1.84035-0.70586,2.27488C16.48744,53.47728,16.21808,53.53823,15.95461,53.53823z" fill="currentColor">
		</path>
		<path d="M9.012,76.59964c-0.93591,0-1.87574-0.19859-2.76446-0.59772c-1.67322-0.75108-2.94142-2.10775-3.57256-3.81637   c-0.65081-1.65946-0.59969-3.51357,0.15926-5.1868c0.74715-1.6516,2.08612-2.92372,3.77311-3.58436   c0.00983-0.00393,0.01966-0.00787,0.02949-0.0118c1.69092-0.62132,3.5352-0.55053,5.19073,0.21431   c1.65553,0.76288,2.91192,2.11366,3.5352,3.80457c0.64688,1.6516,0.59969,3.49194-0.1455,5.15141   c-0.74912,1.67323-2.10579,2.94338-3.81637,3.5765C10.63214,76.45021,9.82404,76.59964,9.012,76.59964z M7.82049,66.55439   c-0.85726,0.34015-1.53756,0.99096-1.919,1.83249c-0.37947,0.83956-0.40897,1.76366-0.08061,2.60126   c0.32835,0.88478,0.9654,1.56312,1.80693,1.94259c0.82383,0.36964,1.74008,0.39717,2.57571,0.07079   c0.88478-0.32639,1.56508-0.9654,1.94259-1.80693c0.37161-0.82776,0.3952-1.74204,0.07078-2.5757   c-0.32442-0.87889-0.9595-1.55722-1.79906-1.94456C9.58613,66.29092,8.66202,66.24767,7.82049,66.55439z" fill="currentColor">
		</path>
		<path d="M13.78197,69.68849c-0.76288,0-1.45498-0.52104-1.63587-1.29768L9.57826,57.49027   c-0.21431-0.90445,0.34605-1.81086,1.25246-2.0232c0.90641-0.21628,1.81282,0.34605,2.02321,1.25246l2.56784,10.90054   c0.21431,0.90444-0.34605,1.81086-1.25246,2.02321C14.03954,69.67473,13.90977,69.68849,13.78197,69.68849z" fill="currentColor">
		</path>
		<path d="M25.73442,70.3275c-2.71924,0-5.25562-1.6516-6.32719-4.3905c-1.30358-3.60009,0.45616-7.44988,3.98939-8.80655   c0.00787-0.00196,0.01376-0.00393,0.01966-0.0059c1.71648-0.63704,3.57256-0.5584,5.23202,0.21235   c1.6398,0.76091,2.88243,2.11758,3.49785,3.8203c1.29768,3.50964-0.47975,7.42432-3.9658,8.71414   C27.37225,70.18004,26.54449,70.3275,25.73442,70.3275z M24.59207,60.27832c-1.79709,0.69603-2.68974,2.65829-2.035,4.47308   c0.69407,1.76957,2.64845,2.65435,4.43768,1.96815c1.7617-0.65081,2.64649-2.62683,1.98978-4.40623   c-0.31262-0.86316-0.93394-1.54149-1.75581-1.92293C26.39309,60.00306,25.45915,59.96766,24.59207,60.27832z" fill="currentColor">
		</path>
		<path d="M20.97625,67.00661c-0.60755,0-1.19348-0.32835-1.4943-0.90248l-5.1927-9.92924   c-0.4306-0.82383-0.11207-1.84232,0.71176-2.27291c0.8317-0.43256,1.84232-0.11011,2.27291,0.71176l5.1927,9.92924   c0.4306,0.82384,0.11207,1.84232-0.71176,2.27292C21.50515,66.94566,21.23775,67.00661,20.97625,67.00661z" fill="currentColor">
		</path>
		<path d="M93.62881,52.73996c-0.49744,0-0.98899-0.21825-1.32127-0.63901c-5.62527-7.10482-8.41528-15.04919-8.29534-23.61194   c0.0118-0.92902,0.76681-1.75384,1.70665-1.65946c0.93,0.01278,1.67323,0.77664,1.65946,1.70665   c-0.10815,7.76742,2.43806,14.99316,7.56785,21.47666c0.57806,0.72749,0.45419,1.78727-0.27527,2.36336   C94.36221,52.62199,93.99453,52.73996,93.62881,52.73996z" fill="currentColor">
		</path>
		<path d="M84.83996,47.09012c-0.55643,0-1.10106-0.27526-1.42155-0.77959c-3.93041-6.17088-5.33427-12.64062-4.17422-19.23127   c0.16122-0.91526,1.03421-1.5179,1.94849-1.3665c0.91624,0.16123,1.52773,1.03421,1.3665,1.95046   c-1.00865,5.73537,0.23595,11.39995,3.6984,16.83842c0.49941,0.78451,0.26936,1.82462-0.51514,2.32403   C85.46127,47.00459,85.14865,47.09012,84.83996,47.09012z" fill="currentColor">
		</path>
		<path d="M84.83996,47.09012c-0.59772,0-1.17774-0.3195-1.48251-0.88183c-0.44239-0.81794-0.1396-1.83937,0.67834-2.28275   c1.53953-0.83366,3.04366-1.50905,4.18404-2.00453c0.85332-0.36669,1.84428,0.02065,2.21393,0.87299   c0.37161,0.85332-0.01966,1.84428-0.87299,2.21589c-1.07551,0.46795-2.49509,1.10401-3.92058,1.87672   C85.3846,47.02426,85.10933,47.09012,84.83996,47.09012z" fill="currentColor">
		</path>
		<path d="M85.69722,30.19665c-0.07865,0-0.15926-0.0059-0.23988-0.0177c-1.59851-0.22808-3.25797-0.6223-5.07079-1.20527   c-0.88479-0.28411-1.3724-1.2328-1.0873-2.11758c0.2851-0.88577,1.23476-1.37043,2.11758-1.0873   c1.62997,0.52399,3.10854,0.87593,4.51633,1.07747c0.92017,0.13075,1.56116,0.98408,1.42942,1.90425   C87.24264,29.59008,86.52105,30.19665,85.69722,30.19665z" fill="currentColor">
		</path>
		<path d="M77.06763,75.71289c-1.65553,0-3.17933-0.96737-3.8321-2.55998c-0.407-0.94966-0.4129-2.04286-0.00197-3.04758   c0.42273-1.03028,1.25836-1.86395,2.29257-2.28864c7.74678-3.08495,13.75545-9.38657,16.50417-17.29458   c0.33229-1.01652,1.07944-1.87181,2.05663-2.35156c1.00079-0.48958,2.17067-0.55447,3.19702-0.18089   c2.09202,0.75895,3.19702,3.03186,2.51475,5.175C96.24187,63.35147,88.5069,71.45609,78.55996,75.44745   C78.06448,75.62834,77.55917,75.71289,77.06763,75.71289z M95.90173,51.11393c-0.11207,0-0.22414,0.02753-0.33031,0.07865   c-0.09831,0.04719-0.27134,0.16122-0.34016,0.37554c-0.00393,0.01376-0.00983,0.02753-0.01376,0.04129   c-3.06725,8.83997-9.78571,15.88482-18.43103,19.32958c-0.19072,0.07864-0.35391,0.24184-0.43649,0.44042   c-0.04719,0.116-0.08652,0.291-0.00787,0.47189c0.17303,0.4247,0.59969,0.60952,1.01455,0.45026   c8.99334-3.60795,16.02836-10.97919,19.24897-20.20257c0.116-0.36964-0.08455-0.80417-0.46992-0.94377   C96.06099,51.12769,95.98234,51.11393,95.90173,51.11393z" fill="currentColor">
		</path>
	</g>
</svg>
