<svg xmlns="http://www.w3.org/2000/svg" viewBox="0 0 64 64" x="0px" y="0px" style="max-width:100%; color: #3fb386;" height="100%" width="70">
	<g fill="currentColor">
		<path d="M44,50H43V14h1a1,1,0,0,0,1-1V9a1,1,0,0,0-1-1H42.92A7.006,7.006,0,0,0,36,2H28a7.006,7.006,0,0,0-6.92,6H20a1,1,0,0,0-1,1v4a1,1,0,0,0,1,1h1V50H20a1,1,0,0,0-1,1v4a1,1,0,0,0,1,1h1.08A7.006,7.006,0,0,0,28,62h8a7.006,7.006,0,0,0,6.92-6H44a1,1,0,0,0,1-1V51A1,1,0,0,0,44,50ZM41,35.744v5.912l-18-5.4V30.344Zm0-2.088-18-5.4V22.344l18,5.4Zm0-8-18-5.4V14.344l18,5.4ZM23,38.344l18,5.4v5.912l-18-5.4ZM41,17.656,28.814,14H41ZM28,4h8a5.008,5.008,0,0,1,4.9,4H23.1A5.008,5.008,0,0,1,28,4Zm-7,6H43v2H21Zm2,36.344L35.186,50H23ZM36,60H28a5.008,5.008,0,0,1-4.9-4H40.9A5.008,5.008,0,0,1,36,60Zm7-6H21V52H43Z" fill="currentColor">
		</path>
		<path d="M18,17a4,4,0,0,1-4-4,1,1,0,0,0-2,0,4,4,0,0,1-4,4,1,1,0,0,0,0,2,4,4,0,0,1,4,4,1,1,0,0,0,2,0,4,4,0,0,1,4-4,1,1,0,0,0,0-2Zm-5,2.69A6.044,6.044,0,0,0,11.31,18,6.044,6.044,0,0,0,13,16.31,6.044,6.044,0,0,0,14.69,18,6.044,6.044,0,0,0,13,19.69Z" fill="currentColor">
		</path>
		<path d="M56,44a4,4,0,0,1-4-4,1,1,0,0,0-2,0,4,4,0,0,1-4,4,1,1,0,0,0,0,2,4,4,0,0,1,4,4,1,1,0,0,0,2,0,4,4,0,0,1,4-4,1,1,0,0,0,0-2Zm-5,2.69A6.044,6.044,0,0,0,49.31,45,6.044,6.044,0,0,0,51,43.31,6.044,6.044,0,0,0,52.69,45,6.044,6.044,0,0,0,51,46.69Z" fill="currentColor">
		</path>
	</g>
</svg>