<svg xmlns="http://www.w3.org/2000/svg" xmlns:xlink="http://www.w3.org/1999/xlink" version="1.1" x="0px" y="0px" viewBox="0 0 128 128" style="enable-background:new 0 0 128 128;max-width:100%; color: #3fb386;" xml:space="preserve" height="100%" width="70">
	<title fill="currentColor">
		Beauty &amp;amp; Cosmetics 1 final
	</title>
	<path d="M2,127.8h124c1.1,0,2-0.9,2-2v-10c0-1.1-0.9-2-2-2h-4v-7.5c0-1.1-0.9-2-2-2h-7V37.9h3.6c1.1,0,2-0.9,2-2V20.8h3.4  c1.1,0,2-0.9,2-2V1.8c0-1.1-0.9-2-2-2H6c-1.1,0-2,0.9-2,2v17.1c0,1.1,0.9,2,2,2h3.4v15.1c0,1.1,0.9,2,2,2H15V53h2.5  c0.5,0,1,0,1.5,0.1V37.9h74.6c-0.5-1.3-0.5-2.7,0-4H13.4V20.8H17c1.1,0,2-0.9,2-2s-0.9-2-2-2H8V3.8h112v13h-3.4h-0.3H116h-6  c-1.1,0-2,0.9-2,2s0.9,2,2,2h4.6v13.1h-9.6c0.5,1.3,0.5,2.7,0,4h4.1V52H78.6c0.5,1.3,0.5,2.7,0,4H109v48.2H62V66.5  c0.1-10.8-8.6-19.5-19.4-19.6c-7.1,0-13.6,3.7-17.1,9.9c0.6,1.3,0.9,2.7,0.9,4.1v3.2h0.7c1.1-6.8,6.5-12.1,13.3-13v20.1  c-3.5,1.1-5.5,4.9-4.4,8.4c0.7,2.1,2.3,3.7,4.4,4.4v20.2H27v-8.9h-4v8.9h-4v-8.9h-4v8.9H8c-1.1,0-2,0.9-2,2v7.5H3.9V60.9  c0-0.8,0.7-1.5,1.5-1.5H17c0.8,0,1.5,0.7,1.5,1.5v5.4c0,0.6,0.1,1.2,0.3,1.8h-7.2c-1.1,0-2,0.9-2,2v19.2c0,1.1,0.9,2,2,2h20.2  c1.1,0,2-0.9,2-2l0,0V70.1c0-1.1-0.9-2-2-2h-6.9c-0.3-0.1-0.6-0.2-0.9-0.2c-0.8,0-1.5-0.7-1.5-1.5v-5.5c0-3-2.4-5.5-5.5-5.6  c0,0,0,0,0,0H5.5c-3,0-5.5,2.5-5.5,5.6c0,0,0,0,0,0v64.8C0,126.8,0.9,127.7,2,127.8C2,127.7,2,127.8,2,127.8z M44.5,51.1  c7.7,1,13.5,7.6,13.5,15.4v37.7H44.5V83.9c3.5-1.1,5.5-4.9,4.4-8.4c-0.7-2.1-2.3-3.7-4.4-4.4V51.1z M39.8,77.6  c0-1.5,1.2-2.7,2.7-2.7s2.7,1.2,2.7,2.7c0,1.5-1.2,2.7-2.7,2.7C41,80.2,39.8,79,39.8,77.6C39.8,77.6,39.8,77.6,39.8,77.6z M10,108.2  h108v5.5H10V108.2z M4,117.7h120v6H4V117.7z M29.8,72.1v15.1H13.7V72.1H29.8z" fill="currentColor">
	</path>
	<path d="M67,65v31.1c0,1.1,0.9,2,2,2h16.4c-0.5-1.3-0.6-2.7-0.2-4H71V67h31v27.1h-5.3c0.4,1.3,0.3,2.7-0.2,4h7.4c1.1,0,2-0.9,2-2V65  c0-1.1-0.9-2-2-2H69C67.9,63,67,63.9,67,65z" fill="currentColor">
	</path>
	<ellipse cx="91" cy="95.9" rx="2" ry="2" fill="currentColor">
	</ellipse>
	<ellipse cx="99.3" cy="35.8" rx="2" ry="2" fill="currentColor">
	</ellipse>
	<ellipse cx="73" cy="54" rx="2" ry="2" fill="currentColor">
	</ellipse>
	<path d="M80.7,79.5c-0.8,0.8-0.8,2,0,2.8c0,0,0,0,0,0l4.9,4.9c0.8,0.8,2,0.8,2.8,0c0,0,0,0,0,0c0.8-0.8,0.8-2,0-2.8c0,0,0,0,0,0  l-4.9-4.9C82.7,78.7,81.5,78.7,80.7,79.5C80.7,79.5,80.7,79.5,80.7,79.5z" fill="currentColor">
	</path>
	<path d="M95.2,82c0.8-0.8,0.8-2,0-2.8c0,0,0,0,0,0l-6.5-6.6c-0.8-0.8-2.1-0.8-2.8,0s-0.8,2.1,0,2.8l6.5,6.6  C93.2,82.8,94.4,82.8,95.2,82C95.2,82,95.2,82,95.2,82z" fill="currentColor">
	</path>
</svg>
