<svg xmlns="http://www.w3.org/2000/svg" viewBox="0 0 100 100" x="0px" y="0px" style="max-width:100%; color: #3fb386;" height="100%" width="70">
	<title fill="currentColor">
		Artboard 16
	</title>
	<g data-name="Layer 2" fill="currentColor">
		<path d="M46.08,71.86V56.94s0-.07,0-.1l-2.87-42a8.71,8.71,0,0,0-8.67-8.09A3.46,3.46,0,0,0,31.1,9.87l-3.73,45.2a1.5,1.5,0,0,0,.73,1.41l7.39,4.41v3l-5.78-3.33a1.5,1.5,0,0,0-2.25,1.3v10h-.41c-6.3,0-11.43,4.88-11.43,10.88s5.13,10.88,11.43,10.88A11.54,11.54,0,0,0,37,88.09a10.81,10.81,0,0,0,8.6,5.5l.76,0A10.88,10.88,0,0,0,57.22,82,11.06,11.06,0,0,0,46.08,71.86ZM35.49,82.74a8.18,8.18,0,0,1-8.43,7.88,7.9,7.9,0,1,1,0-15.76H29a1.5,1.5,0,0,0,1.5-1.5V64.41l5,2.9V82.45c0,.07,0,.13,0,.2S35.49,82.7,35.49,82.74Zm16.45,5.57a7.89,7.89,0,0,1-6.14,2.29,8.05,8.05,0,0,1-7.31-8.15V60a1.5,1.5,0,0,0-.73-1.29l-7.32-4.36,3.65-44.27a.44.44,0,0,1,.44-.4A5.7,5.7,0,0,1,40.2,15l2.87,42V73.36a1.5,1.5,0,0,0,1.5,1.5h1.51a8.05,8.05,0,0,1,8.15,7.31A7.9,7.9,0,0,1,51.94,88.31Z" fill="currentColor">
		</path>
		<path d="M27.06,78a4.76,4.76,0,1,0,4.76,4.76A4.77,4.77,0,0,0,27.06,78Zm0,6.53a1.76,1.76,0,1,1,1.76-1.76A1.77,1.77,0,0,1,27.06,84.57Z" fill="currentColor">
		</path>
		<path d="M46.35,78a4.76,4.76,0,1,0,4.76,4.76A4.77,4.77,0,0,0,46.35,78Zm0,6.53a1.76,1.76,0,1,1,1.76-1.76A1.77,1.77,0,0,1,46.35,84.57Z" fill="currentColor">
		</path>
		<circle cx="36.99" cy="50.35" r="1.79" fill="currentColor">
		</circle>
		<path d="M81.47,42.08,82,14.72a8,8,0,0,0-8-8H58.44a1.5,1.5,0,1,0,0,3H67v3.44H58.44a1.5,1.5,0,0,0,0,3H67V19.6H58.44a1.5,1.5,0,0,0,0,3H67V26H58.44a1.5,1.5,0,0,0,0,3H67v3.44H58.44a1.5,1.5,0,0,0,0,3H67v3.44H58.44a1.5,1.5,0,0,0,0,3H67v3.44H58.44a1.5,1.5,0,0,0,0,3H67v2a1.5,1.5,0,0,0,.13.6,35,35,0,0,1,2.67,18.27L67.85,85.09A7.6,7.6,0,1,0,83,85.93L81.46,58.57A147.58,147.58,0,0,1,81.47,42.08ZM75.4,90.61a4.6,4.6,0,0,1-4.57-5.16l1.94-15.86A38,38,0,0,0,70,50V9.72h4a5,5,0,0,1,5,5L78.47,42a150.27,150.27,0,0,0,0,16.78L80,86A4.61,4.61,0,0,1,75.4,90.61Z" fill="currentColor">
		</path>
	</g>
</svg>
